<?xml version="1.0" encoding="UTF-8"?>
<svg width="900px" height="448px" viewBox="0 0 900 448" version="1.1" xmlns="http://www.w3.org/2000/svg" xmlns:xlink="http://www.w3.org/1999/xlink">
    <!-- Generator: Sketch 47.1 (45422) - http://www.bohemiancoding.com/sketch -->
    <title>Custom Preset 8</title>
    <desc>Created with Sketch.</desc>
    <defs>
        <linearGradient x1="100%" y1="181.411295%" x2="-11.8821637%" y2="-138.217394%" id="linearGradient-1">
            <stop stop-color="#DA4EC6" offset="0%"></stop>
            <stop stop-color="#15CECE" offset="100%"></stop>
        </linearGradient>
    </defs>
    <g id="Page-1" stroke="none" stroke-width="1" fill="none" fill-rule="evenodd">
        <g id="Custom-Preset-8">
            <path d="M183.128,171.48 L174.36,171.48 C173.250661,171.48 172.141339,170.648008 171.032,168.984 C170.306663,167.831994 169.944,166.957336 169.944,166.36 C169.944,165.335995 170.615993,164.386671 171.96,163.512 C173.304007,162.637329 174.765325,162.2 176.344,162.2 L202.52,162.2 C204.184008,162.2 205.016,162.967992 205.016,164.504 C205.016,166.253342 204.546671,167.853326 203.608,169.304 C202.669329,170.754674 201.645339,171.48 200.536,171.48 L192.024,171.48 L192.024,200.408 C192.024,202.157342 191.554671,203.757326 190.616,205.208 C189.677329,206.658674 188.653339,207.384 187.544,207.384 C186.434661,207.384 185.325339,206.552008 184.216,204.888 C183.490663,203.735994 183.128,202.861336 183.128,202.264 L183.128,171.48 Z M215.832,194.008 C216.301336,196.013343 217.325325,197.623994 218.904,198.84 C220.482675,200.056006 222.381322,200.664 224.6,200.664 C226.477343,200.664 228.71732,200.024006 231.32,198.744 C232.514673,198.146664 233.623995,197.848 234.648,197.848 C236.01334,197.848 236.696,198.46666 236.696,199.704 C236.696,200.813339 236.450669,201.879995 235.96,202.904 C235.469331,203.928005 234.840004,204.674664 234.072,205.144 C232.621326,206.040004 231.010676,206.733331 229.24,207.224 C227.469324,207.714669 225.709342,207.96 223.96,207.96 C220.887985,207.96 218.082679,207.149341 215.544,205.528 C213.005321,203.906659 211.032007,201.816013 209.624,199.256 C208.215993,196.695987 207.512,193.965348 207.512,191.064 C207.512,187.821317 208.279992,184.888013 209.816,182.264 C211.352008,179.639987 213.357321,177.61334 215.832,176.184 C218.306679,174.75466 221.015985,174.04 223.96,174.04 C226.818681,174.04 229.389322,174.711993 231.672,176.056 C233.954678,177.400007 235.71466,179.181322 236.952,181.4 C238.18934,183.618678 238.808,186.050653 238.808,188.696 C238.808,190.06134 238.456004,191.287995 237.752,192.376 C237.047996,193.464005 236.269338,194.008 235.416,194.008 L215.832,194.008 Z M230.936,187.544 C230.850666,185.709324 230.12534,184.17334 228.76,182.936 C227.39466,181.69866 225.730676,181.08 223.768,181.08 C221.71999,181.08 219.970674,181.666661 218.52,182.84 C217.069326,184.013339 216.173335,185.581324 215.832,187.544 L230.936,187.544 Z M243.48,165.784 C243.48,164.845329 244.13066,163.949338 245.432,163.096 C246.73334,162.242662 248.130659,161.816 249.624,161.816 C251.202675,161.816 251.992,162.541326 251.992,163.992 L251.992,197.016 C251.992,197.570669 252.109332,198.029332 252.344,198.392 C252.578668,198.754668 252.994664,199.063999 253.592,199.32 C254.27467,199.618668 254.616,200.215996 254.616,201.112 C254.616,202.690675 254.189338,204.13066 253.336,205.432 C252.482662,206.73334 251.565338,207.384 250.584,207.384 C248.66399,207.384 247.000007,206.626674 245.592,205.112 C244.183993,203.597326 243.48,201.81601 243.48,199.768 L243.48,165.784 Z M259.544,178.584 C259.544,177.645329 260.19466,176.749338 261.496,175.896 C262.79734,175.042662 264.194659,174.616 265.688,174.616 C267.266675,174.616 268.056,175.341326 268.056,176.792 L268.056,200.664 C268.056,201.816006 267.832002,202.925328 267.384,203.992 C266.935998,205.058672 266.381337,205.890664 265.72,206.488 C265.058663,207.085336 264.408003,207.384 263.768,207.384 C262.701328,207.384 261.634672,206.573341 260.568,204.952 C259.88533,203.970662 259.544,203.13867 259.544,202.456 L259.544,178.584 Z M263.768,170.52 C262.658661,170.52 261.506673,169.645342 260.312,167.896 C259.501329,166.65866 259.096,165.69867 259.096,165.016 C259.096,163.949328 259.821326,162.946671 261.272,162.008 C262.722674,161.069329 264.279992,160.6 265.944,160.6 C267.736009,160.6 268.632,161.410659 268.632,163.032 C268.632,164.312006 268.386669,165.538661 267.896,166.712 C267.405331,167.885339 266.78667,168.81333 266.04,169.496 C265.29333,170.17867 264.536004,170.52 263.768,170.52 Z M295.448,183.32 C293.869325,182.423996 292.098676,181.976 290.136,181.976 C287.703988,181.976 285.666675,182.797325 284.024,184.44 C282.381325,186.082675 281.56,188.141321 281.56,190.616 C281.56,193.090679 282.381325,195.181325 284.024,196.888 C285.666675,198.594675 287.682655,199.448 290.072,199.448 C291.99201,199.448 293.783992,198.914672 295.448,197.848 L295.448,183.32 Z M303.96,200.664 C303.96,201.816006 303.736002,202.925328 303.288,203.992 C302.839998,205.058672 302.285337,205.890664 301.624,206.488 C300.962663,207.085336 300.312003,207.384 299.672,207.384 C298.690662,207.384 297.624006,206.573341 296.472,204.952 C296.045331,204.26933 295.746668,203.672003 295.576,203.16 C295.234665,204.098671 294.776003,204.90933 294.2,205.592 C293.623997,206.27467 293.016003,206.722666 292.376,206.936 C291.479996,207.234668 290.520005,207.384 289.496,207.384 C286.423985,207.384 283.640012,206.616008 281.144,205.08 C278.647988,203.543992 276.706674,201.528012 275.32,199.032 C273.933326,196.535988 273.24,193.816015 273.24,190.872 C273.24,187.714651 274.029325,184.83468 275.608,182.232 C277.186675,179.62932 279.234654,177.61334 281.752,176.184 C284.269346,174.75466 286.978652,174.04 289.88,174.04 C292.354679,174.04 294.765322,174.72266 297.112,176.088 C298.605341,175.106662 300.098659,174.616 301.592,174.616 C303.170675,174.616 303.96,175.341326 303.96,176.792 L303.96,200.664 Z M313.752,192.856 C312.727995,192.856 311.704005,192.088008 310.68,190.552 C309.99733,189.442661 309.656,188.632003 309.656,188.12 C309.656,187.181329 310.285327,186.296004 311.544,185.464 C312.802673,184.631996 314.178659,184.216 315.672,184.216 L330.712,184.216 C332.290675,184.216 333.08,184.941326 333.08,186.392 C333.08,187.970675 332.642671,189.44266 331.768,190.808 C330.893329,192.17334 329.944005,192.856 328.92,192.856 L313.752,192.856 Z M359.256,183.32 C357.677325,182.423996 355.906676,181.976 353.944,181.976 C351.511988,181.976 349.474675,182.797325 347.832,184.44 C346.189325,186.082675 345.368,188.141321 345.368,190.616 C345.368,193.090679 346.189325,195.181325 347.832,196.888 C349.474675,198.594675 351.490655,199.448 353.88,199.448 C355.80001,199.448 357.591992,198.914672 359.256,197.848 L359.256,183.32 Z M367.768,200.664 C367.768,201.816006 367.544002,202.925328 367.096,203.992 C366.647998,205.058672 366.093337,205.890664 365.432,206.488 C364.770663,207.085336 364.120003,207.384 363.48,207.384 C362.498662,207.384 361.432006,206.573341 360.28,204.952 C359.853331,204.26933 359.554668,203.672003 359.384,203.16 C359.042665,204.098671 358.584003,204.90933 358.008,205.592 C357.431997,206.27467 356.824003,206.722666 356.184,206.936 C355.287996,207.234668 354.328005,207.384 353.304,207.384 C350.231985,207.384 347.448012,206.616008 344.952,205.08 C342.455988,203.543992 340.514674,201.528012 339.128,199.032 C337.741326,196.535988 337.048,193.816015 337.048,190.872 C337.048,187.714651 337.837325,184.83468 339.416,182.232 C340.994675,179.62932 343.042654,177.61334 345.56,176.184 C348.077346,174.75466 350.786652,174.04 353.688,174.04 C356.162679,174.04 358.573322,174.72266 360.92,176.088 C362.413341,175.106662 363.906659,174.616 365.4,174.616 C366.978675,174.616 367.768,175.341326 367.768,176.792 L367.768,200.664 Z M383.192,212.568 C383.192,213.720006 382.968002,214.829328 382.52,215.896 C382.071998,216.962672 381.517337,217.794664 380.856,218.392 C380.194663,218.989336 379.544003,219.288 378.904,219.288 C377.837328,219.288 376.770672,218.477341 375.704,216.856 C375.02133,215.874662 374.68,215.04267 374.68,214.36 L374.68,178.584 C374.68,177.645329 375.33066,176.749338 376.632,175.896 C377.93334,175.042662 379.330659,174.616 380.824,174.616 C382.274674,174.616 383.063999,175.255994 383.192,176.536 C385.666679,174.871992 388.26932,174.04 391,174.04 C393.773347,174.04 396.269322,174.786659 398.488,176.28 C400.706678,177.773341 402.413327,179.767988 403.608,182.264 C404.802673,184.760012 405.4,187.501318 405.4,190.488 C405.4,193.816017 404.696007,196.791987 403.288,199.416 C401.879993,202.040013 400.002678,204.06666 397.656,205.496 C395.309322,206.92534 392.728014,207.64 389.912,207.64 C388.802661,207.64 387.640006,207.501335 386.424,207.224 C385.207994,206.946665 384.130671,206.573336 383.192,206.104 L383.192,212.568 Z M383.192,198.104 C385.069343,199.170672 387.074656,199.704 389.208,199.704 C391.426678,199.704 393.293326,198.850675 394.808,197.144 C396.322674,195.437325 397.08,193.325346 397.08,190.808 C397.08,188.247987 396.376007,186.136008 394.968,184.472 C393.559993,182.807992 391.768011,181.976 389.592,181.976 C388.439994,181.976 387.298672,182.189331 386.168,182.616 C385.037328,183.042669 384.045338,183.661329 383.192,184.472 L383.192,198.104 Z M419.096,212.568 C419.096,213.720006 418.872002,214.829328 418.424,215.896 C417.975998,216.962672 417.421337,217.794664 416.76,218.392 C416.098663,218.989336 415.448003,219.288 414.808,219.288 C413.741328,219.288 412.674672,218.477341 411.608,216.856 C410.92533,215.874662 410.584,215.04267 410.584,214.36 L410.584,178.584 C410.584,177.645329 411.23466,176.749338 412.536,175.896 C413.83734,175.042662 415.234659,174.616 416.728,174.616 C418.178674,174.616 418.967999,175.255994 419.096,176.536 C421.570679,174.871992 424.17332,174.04 426.904,174.04 C429.677347,174.04 432.173322,174.786659 434.392,176.28 C436.610678,177.773341 438.317327,179.767988 439.512,182.264 C440.706673,184.760012 441.304,187.501318 441.304,190.488 C441.304,193.816017 440.600007,196.791987 439.192,199.416 C437.783993,202.040013 435.906678,204.06666 433.56,205.496 C431.213322,206.92534 428.632014,207.64 425.816,207.64 C424.706661,207.64 423.544006,207.501335 422.328,207.224 C421.111994,206.946665 420.034671,206.573336 419.096,206.104 L419.096,212.568 Z M419.096,198.104 C420.973343,199.170672 422.978656,199.704 425.112,199.704 C427.330678,199.704 429.197326,198.850675 430.712,197.144 C432.226674,195.437325 432.984,193.325346 432.984,190.808 C432.984,188.247987 432.280007,186.136008 430.872,184.472 C429.463993,182.807992 427.672011,181.976 425.496,181.976 C424.343994,181.976 423.202672,182.189331 422.072,182.616 C420.941328,183.042669 419.949338,183.661329 419.096,184.472 L419.096,198.104 Z M449.368,192.856 C448.343995,192.856 447.320005,192.088008 446.296,190.552 C445.61333,189.442661 445.272,188.632003 445.272,188.12 C445.272,187.181329 445.901327,186.296004 447.16,185.464 C448.418673,184.631996 449.794659,184.216 451.288,184.216 L466.328,184.216 C467.906675,184.216 468.696,184.941326 468.696,186.392 C468.696,187.970675 468.258671,189.44266 467.384,190.808 C466.509329,192.17334 465.560005,192.856 464.536,192.856 L449.368,192.856 Z M498.84,197.784 C498.84,199.70401 498.232006,201.442659 497.016,203 C495.799994,204.557341 494.242676,205.773329 492.344,206.648 C490.445324,207.522671 488.386678,207.96 486.168,207.96 C483.522653,207.96 481.069345,207.522671 478.808,206.648 C476.546655,205.773329 474.776006,204.568008 473.496,203.032 C473.111998,202.562664 472.802668,202.093336 472.568,201.624 C472.333332,201.154664 472.216,200.792001 472.216,200.536 C472.216,199.767996 472.749328,199.032004 473.816,198.328 C474.882672,197.623996 476.013327,197.272 477.208,197.272 C477.976004,197.272 478.573331,197.527997 479,198.04 C479.810671,198.978671 480.781328,199.661331 481.912,200.088 C483.042672,200.514669 484.439992,200.728 486.104,200.728 C487.554674,200.728 488.695996,200.482669 489.528,199.992 C490.360004,199.501331 490.776,198.850671 490.776,198.04 C490.776,197.101329 490.296005,196.354669 489.336,195.8 C488.375995,195.245331 486.616013,194.690669 484.056,194.136 C480.557316,193.325329 477.880009,192.034676 476.024,190.264 C474.167991,188.493324 473.24,186.30668 473.24,183.704 C473.24,181.826657 473.815994,180.152007 474.968,178.68 C476.120006,177.207993 477.65599,176.066671 479.576,175.256 C481.49601,174.445329 483.607988,174.04 485.912,174.04 C487.746676,174.04 489.559991,174.274664 491.352,174.744 C493.144009,175.213336 494.72266,175.874662 496.088,176.728 C496.685336,177.112002 496.984,177.64533 496.984,178.328 C496.984,179.608006 496.632004,180.791995 495.928,181.88 C495.223996,182.968005 494.466671,183.512 493.656,183.512 C493.399999,183.512 492.866671,183.320002 492.056,182.936 C489.709322,181.783994 487.533343,181.208 485.528,181.208 C482.711986,181.208 481.304,182.018659 481.304,183.64 C481.304,184.450671 481.794662,185.111997 482.776,185.624 C483.757338,186.136003 485.762652,186.754663 488.792,187.48 C492.248017,188.290671 494.786659,189.527992 496.408,191.192 C498.029341,192.856008 498.84,195.05332 498.84,197.784 Z M505.432,183.192 L503.96,183.192 C503.063996,183.192 502.168004,182.50934 501.272,181.144 C500.674664,180.333329 500.376,179.629336 500.376,179.032 C500.376,178.221329 500.909328,177.464004 501.976,176.76 C503.042672,176.055996 504.19466,175.682667 505.432,175.64 L505.432,169.176 C505.432,168.237329 506.08266,167.341338 507.384,166.488 C508.68534,165.634662 510.082659,165.208 511.576,165.208 C513.154675,165.208 513.944,165.933326 513.944,167.384 L513.944,175.64 L519.32,175.64 C520.68534,175.64 521.368,176.25866 521.368,177.496 C521.368,178.904007 520.984004,180.205327 520.216,181.4 C519.447996,182.594673 518.616004,183.192 517.72,183.192 L513.944,183.192 L513.944,200.664 C513.944,201.816006 513.720002,202.925328 513.272,203.992 C512.823998,205.058672 512.269337,205.890664 511.608,206.488 C510.946663,207.085336 510.296003,207.384 509.656,207.384 C508.589328,207.384 507.522672,206.573341 506.456,204.952 C505.77333,203.970662 505.432,203.13867 505.432,202.456 L505.432,183.192 Z M545.56,183.32 C543.981325,182.423996 542.210676,181.976 540.248,181.976 C537.815988,181.976 535.778675,182.797325 534.136,184.44 C532.493325,186.082675 531.672,188.141321 531.672,190.616 C531.672,193.090679 532.493325,195.181325 534.136,196.888 C535.778675,198.594675 537.794655,199.448 540.184,199.448 C542.10401,199.448 543.895992,198.914672 545.56,197.848 L545.56,183.32 Z M554.072,200.664 C554.072,201.816006 553.848002,202.925328 553.4,203.992 C552.951998,205.058672 552.397337,205.890664 551.736,206.488 C551.074663,207.085336 550.424003,207.384 549.784,207.384 C548.802662,207.384 547.736006,206.573341 546.584,204.952 C546.157331,204.26933 545.858668,203.672003 545.688,203.16 C545.346665,204.098671 544.888003,204.90933 544.312,205.592 C543.735997,206.27467 543.128003,206.722666 542.488,206.936 C541.591996,207.234668 540.632005,207.384 539.608,207.384 C536.535985,207.384 533.752012,206.616008 531.256,205.08 C528.759988,203.543992 526.818674,201.528012 525.432,199.032 C524.045326,196.535988 523.352,193.816015 523.352,190.872 C523.352,187.714651 524.141325,184.83468 525.72,182.232 C527.298675,179.62932 529.346654,177.61334 531.864,176.184 C534.381346,174.75466 537.090652,174.04 539.992,174.04 C542.466679,174.04 544.877322,174.72266 547.224,176.088 C548.717341,175.106662 550.210659,174.616 551.704,174.616 C553.282675,174.616 554.072,175.341326 554.072,176.792 L554.072,200.664 Z M582.296,186.264 C582.296,185.239995 581.944004,184.397337 581.24,183.736 C580.535996,183.074663 579.629339,182.744 578.52,182.744 C576.173322,182.744 573.165352,184.002654 569.496,186.52 L569.496,200.664 C569.496,201.816006 569.272002,202.925328 568.824,203.992 C568.375998,205.058672 567.821337,205.890664 567.16,206.488 C566.498663,207.085336 565.848003,207.384 565.208,207.384 C564.141328,207.384 563.074672,206.573341 562.008,204.952 C561.32533,203.970662 560.984,203.13867 560.984,202.456 L560.984,178.584 C560.984,177.645329 561.63466,176.749338 562.936,175.896 C564.23734,175.042662 565.634659,174.616 567.128,174.616 C568.706675,174.616 569.496,175.341326 569.496,176.792 L569.496,178.328 C573.378686,175.469319 577.111982,174.04 580.696,174.04 C582.61601,174.04 584.354659,174.551995 585.912,175.576 C587.469341,176.600005 588.674662,177.943992 589.528,179.608 C590.381338,181.272008 590.808,183.085324 590.808,185.048 L590.808,200.664 C590.808,201.816006 590.584002,202.925328 590.136,203.992 C589.687998,205.058672 589.133337,205.890664 588.472,206.488 C587.810663,207.085336 587.160003,207.384 586.52,207.384 C585.453328,207.384 584.386672,206.573341 583.32,204.952 C582.63733,203.970662 582.296,203.13867 582.296,202.456 L582.296,186.264 Z M617.688,165.784 C617.688,164.845329 618.33866,163.949338 619.64,163.096 C620.94134,162.242662 622.338659,161.816 623.832,161.816 C625.410675,161.816 626.2,162.541326 626.2,163.992 L626.2,200.664 C626.2,201.816006 625.976002,202.925328 625.528,203.992 C625.079998,205.058672 624.525337,205.890664 623.864,206.488 C623.202663,207.085336 622.552003,207.384 621.912,207.384 C620.930662,207.384 619.864006,206.573341 618.712,204.952 C618.285331,204.26933 617.986668,203.672003 617.816,203.16 C617.474665,204.098671 617.016003,204.90933 616.44,205.592 C615.863997,206.27467 615.256003,206.722666 614.616,206.936 C613.719996,207.234668 612.760005,207.384 611.736,207.384 C608.663985,207.384 605.880012,206.616008 603.384,205.08 C600.887988,203.543992 598.946674,201.528012 597.56,199.032 C596.173326,196.535988 595.48,193.816015 595.48,190.872 C595.48,187.714651 596.269325,184.83468 597.848,182.232 C599.426675,179.62932 601.474654,177.61334 603.992,176.184 C606.509346,174.75466 609.218652,174.04 612.12,174.04 C613.954676,174.04 615.810657,174.445329 617.688,175.256 L617.688,165.784 Z M617.688,183.32 C616.109325,182.423996 614.338676,181.976 612.376,181.976 C609.943988,181.976 607.906675,182.797325 606.264,184.44 C604.621325,186.082675 603.8,188.141321 603.8,190.616 C603.8,193.090679 604.621325,195.181325 606.264,196.888 C607.906675,198.594675 609.922655,199.448 612.312,199.448 C614.23201,199.448 616.023992,198.914672 617.688,197.848 L617.688,183.32 Z M653.592,183.32 C652.013325,182.423996 650.242676,181.976 648.28,181.976 C645.847988,181.976 643.810675,182.797325 642.168,184.44 C640.525325,186.082675 639.704,188.141321 639.704,190.616 C639.704,193.090679 640.525325,195.181325 642.168,196.888 C643.810675,198.594675 645.826655,199.448 648.216,199.448 C650.13601,199.448 651.927992,198.914672 653.592,197.848 L653.592,183.32 Z M662.104,200.664 C662.104,201.816006 661.880002,202.925328 661.432,203.992 C660.983998,205.058672 660.429337,205.890664 659.768,206.488 C659.106663,207.085336 658.456003,207.384 657.816,207.384 C656.834662,207.384 655.768006,206.573341 654.616,204.952 C654.189331,204.26933 653.890668,203.672003 653.72,203.16 C653.378665,204.098671 652.920003,204.90933 652.344,205.592 C651.767997,206.27467 651.160003,206.722666 650.52,206.936 C649.623996,207.234668 648.664005,207.384 647.64,207.384 C644.567985,207.384 641.784012,206.616008 639.288,205.08 C636.791988,203.543992 634.850674,201.528012 633.464,199.032 C632.077326,196.535988 631.384,193.816015 631.384,190.872 C631.384,187.714651 632.173325,184.83468 633.752,182.232 C635.330675,179.62932 637.378654,177.61334 639.896,176.184 C642.413346,174.75466 645.122652,174.04 648.024,174.04 C650.498679,174.04 652.909322,174.72266 655.256,176.088 C656.749341,175.106662 658.242659,174.616 659.736,174.616 C661.314675,174.616 662.104,175.341326 662.104,176.792 L662.104,200.664 Z M669.016,178.584 C669.016,177.645329 669.66666,176.749338 670.968,175.896 C672.26934,175.042662 673.666659,174.616 675.16,174.616 C676.738675,174.616 677.528,175.341326 677.528,176.792 L677.528,177.88 C678.509338,176.855995 679.703993,175.992004 681.112,175.288 C682.520007,174.583996 683.84266,174.232 685.08,174.232 C687.469345,174.232 688.664,175.085325 688.664,176.792 C688.664,178.328008 688.237338,179.757327 687.384,181.08 C686.530662,182.402673 685.592005,183.064 684.568,183.064 C684.269332,183.064 683.970668,183.042667 683.672,183 C683.373332,182.957333 683.032002,182.936 682.648,182.936 C680.557323,182.936 678.850673,183.490661 677.528,184.6 L677.528,200.664 C677.528,201.816006 677.304002,202.925328 676.856,203.992 C676.407998,205.058672 675.853337,205.890664 675.192,206.488 C674.530663,207.085336 673.880003,207.384 673.24,207.384 C672.173328,207.384 671.106672,206.573341 670.04,204.952 C669.35733,203.970662 669.016,203.13867 669.016,202.456 L669.016,178.584 Z M712.856,165.784 C712.856,164.845329 713.50666,163.949338 714.808,163.096 C716.10934,162.242662 717.506659,161.816 719,161.816 C720.578675,161.816 721.368,162.541326 721.368,163.992 L721.368,200.664 C721.368,201.816006 721.144002,202.925328 720.696,203.992 C720.247998,205.058672 719.693337,205.890664 719.032,206.488 C718.370663,207.085336 717.720003,207.384 717.08,207.384 C716.098662,207.384 715.032006,206.573341 713.88,204.952 C713.453331,204.26933 713.154668,203.672003 712.984,203.16 C712.642665,204.098671 712.184003,204.90933 711.608,205.592 C711.031997,206.27467 710.424003,206.722666 709.784,206.936 C708.887996,207.234668 707.928005,207.384 706.904,207.384 C703.831985,207.384 701.048012,206.616008 698.552,205.08 C696.055988,203.543992 694.114674,201.528012 692.728,199.032 C691.341326,196.535988 690.648,193.816015 690.648,190.872 C690.648,187.714651 691.437325,184.83468 693.016,182.232 C694.594675,179.62932 696.642654,177.61334 699.16,176.184 C701.677346,174.75466 704.386652,174.04 707.288,174.04 C709.122676,174.04 710.978657,174.445329 712.856,175.256 L712.856,165.784 Z M712.856,183.32 C711.277325,182.423996 709.506676,181.976 707.544,181.976 C705.111988,181.976 703.074675,182.797325 701.432,184.44 C699.789325,186.082675 698.968,188.141321 698.968,190.616 C698.968,193.090679 699.789325,195.181325 701.432,196.888 C703.074675,198.594675 705.090655,199.448 707.48,199.448 C709.40001,199.448 711.191992,198.914672 712.856,197.848 L712.856,183.32 Z M215.16,238.02 L210.228,238.02 C209.603997,238.02 208.980003,237.552005 208.356,236.616 C207.947998,235.967997 207.744,235.476002 207.744,235.14 C207.744,234.563997 208.121996,234.030002 208.878,233.538 C209.634004,233.045998 210.455996,232.8 211.344,232.8 L226.068,232.8 C227.004005,232.8 227.472,233.231996 227.472,234.096 C227.472,235.080005 227.208003,235.979996 226.68,236.796 C226.151997,237.612004 225.576003,238.02 224.952,238.02 L220.164,238.02 L220.164,254.292 C220.164,255.276005 219.900003,256.175996 219.372,256.992 C218.843997,257.808004 218.268003,258.216 217.644,258.216 C217.019997,258.216 216.396003,257.748005 215.772,256.812 C215.363998,256.163997 215.16,255.672002 215.16,255.336 L215.16,238.02 Z M233.556,250.692 C233.820001,251.820006 234.395996,252.725997 235.284,253.41 C236.172004,254.094003 237.239994,254.436 238.488,254.436 C239.544005,254.436 240.803993,254.076004 242.268,253.356 C242.940003,253.019998 243.563997,252.852 244.14,252.852 C244.908004,252.852 245.292,253.199997 245.292,253.896 C245.292,254.520003 245.154001,255.119997 244.878,255.696 C244.601999,256.272003 244.248002,256.691999 243.816,256.956 C242.999996,257.460003 242.094005,257.849999 241.098,258.126 C240.101995,258.402001 239.112005,258.54 238.128,258.54 C236.399991,258.54 234.822007,258.084005 233.394,257.172 C231.965993,256.259995 230.856004,255.084007 230.064,253.644 C229.271996,252.203993 228.876,250.668008 228.876,249.036 C228.876,247.211991 229.307996,245.562007 230.172,244.086 C231.036004,242.609993 232.163993,241.470004 233.556,240.666 C234.948007,239.861996 236.471992,239.46 238.128,239.46 C239.736008,239.46 241.181994,239.837996 242.466,240.594 C243.750006,241.350004 244.739997,242.351994 245.436,243.6 C246.132003,244.848006 246.48,246.215993 246.48,247.704 C246.48,248.472004 246.282002,249.161997 245.886,249.774 C245.489998,250.386003 245.052002,250.692 244.572,250.692 L233.556,250.692 Z M242.052,247.056 C242.004,246.023995 241.596004,245.160003 240.828,244.464 C240.059996,243.767997 239.124006,243.42 238.02,243.42 C236.867994,243.42 235.884004,243.749997 235.068,244.41 C234.251996,245.070003 233.748001,245.951994 233.556,247.056 L242.052,247.056 Z M260.628,244.68 C259.739996,244.175997 258.744006,243.924 257.64,243.924 C256.271993,243.924 255.126005,244.385995 254.202,245.31 C253.277995,246.234005 252.816,247.391993 252.816,248.784 C252.816,250.176007 253.277995,251.351995 254.202,252.312 C255.126005,253.272005 256.259993,253.752 257.604,253.752 C258.684005,253.752 259.691995,253.452003 260.628,252.852 L260.628,244.68 Z M265.416,254.436 C265.416,255.084003 265.290001,255.707997 265.038,256.308 C264.785999,256.908003 264.474002,257.375998 264.102,257.712 C263.729998,258.048002 263.364002,258.216 263.004,258.216 C262.451997,258.216 261.852003,257.760005 261.204,256.848 C260.963999,256.463998 260.796,256.128001 260.7,255.84 C260.507999,256.368003 260.250002,256.823998 259.926,257.208 C259.601998,257.592002 259.260002,257.843999 258.9,257.964 C258.395997,258.132001 257.856003,258.216 257.28,258.216 C255.551991,258.216 253.986007,257.784004 252.582,256.92 C251.177993,256.055996 250.086004,254.922007 249.306,253.518 C248.525996,252.113993 248.136,250.584008 248.136,248.928 C248.136,247.151991 248.579996,245.532007 249.468,244.068 C250.356004,242.603993 251.507993,241.470004 252.924,240.666 C254.340007,239.861996 255.863992,239.46 257.496,239.46 C258.888007,239.46 260.243993,239.843996 261.564,240.612 C262.404004,240.059997 263.243996,239.784 264.084,239.784 C264.972004,239.784 265.416,240.191996 265.416,241.008 L265.416,254.436 Z M289.824,246.228 C289.824,245.699997 289.674001,245.268002 289.374,244.932 C289.073998,244.595998 288.696002,244.428 288.24,244.428 C287.135994,244.428 285.840007,245.027994 284.352,246.228 L284.352,254.436 C284.352,255.084003 284.226001,255.707997 283.974,256.308 C283.721999,256.908003 283.410002,257.375998 283.038,257.712 C282.665998,258.048002 282.300002,258.216 281.94,258.216 C281.339997,258.216 280.740003,257.760005 280.14,256.848 C279.755998,256.295997 279.564,255.828002 279.564,255.444 L279.564,246.228 C279.564,245.699997 279.414001,245.268002 279.114,244.932 C278.813998,244.595998 278.436002,244.428 277.98,244.428 C276.875994,244.428 275.580007,245.027994 274.092,246.228 L274.092,254.436 C274.092,255.084003 273.966001,255.707997 273.714,256.308 C273.461999,256.908003 273.150002,257.375998 272.778,257.712 C272.405998,258.048002 272.040002,258.216 271.68,258.216 C271.079997,258.216 270.480003,257.760005 269.88,256.848 C269.495998,256.295997 269.304,255.828002 269.304,255.444 L269.304,242.016 C269.304,241.487997 269.669996,240.984002 270.402,240.504 C271.134004,240.023998 271.919996,239.784 272.76,239.784 C273.648004,239.784 274.092,240.191996 274.092,241.008 L274.092,241.728 C275.052005,240.959996 275.957996,240.390002 276.81,240.018 C277.662004,239.645998 278.519996,239.46 279.384,239.46 C280.248004,239.46 281.057996,239.711997 281.814,240.216 C282.570004,240.720003 283.175998,241.427995 283.632,242.34 C285.792011,240.41999 287.795991,239.46 289.644,239.46 C290.604005,239.46 291.461996,239.741997 292.218,240.306 C292.974004,240.870003 293.561998,241.619995 293.982,242.556 C294.402002,243.492005 294.612,244.523994 294.612,245.652 L294.612,254.436 C294.612,255.084003 294.486001,255.707997 294.234,256.308 C293.981999,256.908003 293.670002,257.375998 293.298,257.712 C292.925998,258.048002 292.560002,258.216 292.2,258.216 C291.599997,258.216 291.000003,257.760005 290.4,256.848 C290.015998,256.295997 289.824,255.828002 289.824,255.444 L289.824,246.228 Z M319.092,257.496 C318.539997,257.832002 317.862004,258.089999 317.058,258.27 C316.253996,258.450001 315.432004,258.54 314.592,258.54 C312.887991,258.54 311.334007,258.090004 309.93,257.19 C308.525993,256.289996 307.440004,255.120007 306.672,253.68 C305.903996,252.239993 305.52,250.692008 305.52,249.036 C305.52,247.259991 305.963996,245.634007 306.852,244.158 C307.740004,242.681993 308.891993,241.530004 310.308,240.702 C311.724007,239.873996 313.247992,239.46 314.88,239.46 C315.768004,239.46 316.643996,239.579999 317.508,239.82 C318.372004,240.060001 319.151997,240.395998 319.848,240.828 C320.304002,241.140002 320.532,241.475998 320.532,241.836 C320.532,242.628004 320.316002,243.359997 319.884,244.032 C319.451998,244.704003 318.984003,245.04 318.48,245.04 C318.311999,245.04 318.108001,244.980001 317.868,244.86 C316.835995,244.307997 315.828005,244.032 314.844,244.032 C313.547994,244.032 312.450004,244.487995 311.55,245.4 C310.649995,246.312005 310.2,247.439993 310.2,248.784 C310.2,250.296008 310.643996,251.537995 311.532,252.51 C312.420004,253.482005 313.559993,253.968 314.952,253.968 C315.792004,253.968 316.679995,253.800002 317.616,253.464 C318.408004,253.175999 318.995998,253.032 319.38,253.032 C319.788002,253.032 320.105999,253.133999 320.334,253.338 C320.562001,253.542001 320.676,253.835998 320.676,254.22 C320.676,254.868003 320.520002,255.509997 320.208,256.146 C319.895998,256.782003 319.524002,257.231999 319.092,257.496 Z M331.764,258.54 C329.963991,258.54 328.338007,258.096004 326.886,257.208 C325.433993,256.319996 324.312004,255.150007 323.52,253.698 C322.727996,252.245993 322.332,250.680008 322.332,249 C322.332,247.175991 322.769996,245.532007 323.646,244.068 C324.522004,242.603993 325.673993,241.470004 327.102,240.666 C328.530007,239.861996 330.083992,239.46 331.764,239.46 C333.564009,239.46 335.189993,239.903996 336.642,240.792 C338.094007,241.680004 339.215996,242.849993 340.008,244.302 C340.800004,245.754007 341.196,247.319992 341.196,249 C341.196,250.824009 340.758004,252.467993 339.882,253.932 C339.005996,255.396007 337.854007,256.529996 336.426,257.334 C334.997993,258.138004 333.444008,258.54 331.764,258.54 Z M331.764,254.076 C333.084007,254.076 334.193996,253.590005 335.094,252.618 C335.994004,251.645995 336.444,250.440007 336.444,249 C336.444,247.559993 335.994004,246.354005 335.094,245.382 C334.193996,244.409995 333.084007,243.924 331.764,243.924 C330.443993,243.924 329.334004,244.409995 328.434,245.382 C327.533995,246.354005 327.084,247.559993 327.084,249 C327.084,250.440007 327.533995,251.645995 328.434,252.618 C329.334004,253.590005 330.443993,254.076 331.764,254.076 Z M344.112,234.816 C344.112,234.287997 344.477996,233.784002 345.21,233.304 C345.942004,232.823998 346.727996,232.584 347.568,232.584 C348.456004,232.584 348.9,232.991996 348.9,233.808 L348.9,252.384 C348.9,252.696002 348.965999,252.953999 349.098,253.158 C349.230001,253.362001 349.463998,253.535999 349.8,253.68 C350.184002,253.848001 350.376,254.183997 350.376,254.688 C350.376,255.576004 350.136002,256.385996 349.656,257.118 C349.175998,257.850004 348.660003,258.216 348.108,258.216 C347.027995,258.216 346.092004,257.790004 345.3,256.938 C344.507996,256.085996 344.112,255.084006 344.112,253.932 L344.112,234.816 Z M353.148,234.816 C353.148,234.287997 353.513996,233.784002 354.246,233.304 C354.978004,232.823998 355.763996,232.584 356.604,232.584 C357.492004,232.584 357.936,232.991996 357.936,233.808 L357.936,252.384 C357.936,252.696002 358.001999,252.953999 358.134,253.158 C358.266001,253.362001 358.499998,253.535999 358.836,253.68 C359.220002,253.848001 359.412,254.183997 359.412,254.688 C359.412,255.576004 359.172002,256.385996 358.692,257.118 C358.211998,257.850004 357.696003,258.216 357.144,258.216 C356.063995,258.216 355.128004,257.790004 354.336,256.938 C353.543996,256.085996 353.148,255.084006 353.148,253.932 L353.148,234.816 Z M373.704,244.68 C372.815996,244.175997 371.820006,243.924 370.716,243.924 C369.347993,243.924 368.202005,244.385995 367.278,245.31 C366.353995,246.234005 365.892,247.391993 365.892,248.784 C365.892,250.176007 366.353995,251.351995 367.278,252.312 C368.202005,253.272005 369.335993,253.752 370.68,253.752 C371.760005,253.752 372.767995,253.452003 373.704,252.852 L373.704,244.68 Z M378.492,254.436 C378.492,255.084003 378.366001,255.707997 378.114,256.308 C377.861999,256.908003 377.550002,257.375998 377.178,257.712 C376.805998,258.048002 376.440002,258.216 376.08,258.216 C375.527997,258.216 374.928003,257.760005 374.28,256.848 C374.039999,256.463998 373.872,256.128001 373.776,255.84 C373.583999,256.368003 373.326002,256.823998 373.002,257.208 C372.677998,257.592002 372.336002,257.843999 371.976,257.964 C371.471997,258.132001 370.932003,258.216 370.356,258.216 C368.627991,258.216 367.062007,257.784004 365.658,256.92 C364.253993,256.055996 363.162004,254.922007 362.382,253.518 C361.601996,252.113993 361.212,250.584008 361.212,248.928 C361.212,247.151991 361.655996,245.532007 362.544,244.068 C363.432004,242.603993 364.583993,241.470004 366,240.666 C367.416007,239.861996 368.939992,239.46 370.572,239.46 C371.964007,239.46 373.319993,239.843996 374.64,240.612 C375.480004,240.059997 376.319996,239.784 377.16,239.784 C378.048004,239.784 378.492,240.191996 378.492,241.008 L378.492,254.436 Z M382.38,234.816 C382.38,234.287997 382.745996,233.784002 383.478,233.304 C384.210004,232.823998 384.995996,232.584 385.836,232.584 C386.724004,232.584 387.168,232.991996 387.168,233.808 L387.168,240.396 C388.368006,239.771997 389.687993,239.46 391.128,239.46 C392.736008,239.46 394.199993,239.885996 395.52,240.738 C396.840007,241.590004 397.859996,242.705993 398.58,244.086 C399.300004,245.466007 399.66,246.959992 399.66,248.568 C399.66,250.416009 399.222004,252.077993 398.346,253.554 C397.469996,255.030007 396.318007,256.175996 394.89,256.992 C393.461993,257.808004 391.920008,258.216 390.264,258.216 C389.591997,258.216 388.980003,258.132001 388.428,257.964 C388.115998,257.843999 387.822001,257.634002 387.546,257.334 C387.269999,257.033998 387.024001,256.656002 386.808,256.2 C386.591999,256.800003 386.292002,257.285998 385.908,257.658 C385.523998,258.030002 385.140002,258.216 384.756,258.216 C384.155997,258.216 383.556003,257.760005 382.956,256.848 C382.571998,256.295997 382.38,255.828002 382.38,255.444 L382.38,234.816 Z M387.168,253.032 C387.984004,253.512002 389.003994,253.752 390.228,253.752 C391.548007,253.752 392.669995,253.272005 393.594,252.312 C394.518005,251.351995 394.98,250.188007 394.98,248.82 C394.98,247.403993 394.536004,246.234005 393.648,245.31 C392.759996,244.385995 391.644007,243.924 390.3,243.924 C389.099994,243.924 388.056004,244.235997 387.168,244.86 L387.168,253.032 Z M411.036,258.54 C409.235991,258.54 407.610007,258.096004 406.158,257.208 C404.705993,256.319996 403.584004,255.150007 402.792,253.698 C401.999996,252.245993 401.604,250.680008 401.604,249 C401.604,247.175991 402.041996,245.532007 402.918,244.068 C403.794004,242.603993 404.945993,241.470004 406.374,240.666 C407.802007,239.861996 409.355992,239.46 411.036,239.46 C412.836009,239.46 414.461993,239.903996 415.914,240.792 C417.366007,241.680004 418.487996,242.849993 419.28,244.302 C420.072004,245.754007 420.468,247.319992 420.468,249 C420.468,250.824009 420.030004,252.467993 419.154,253.932 C418.277996,255.396007 417.126007,256.529996 415.698,257.334 C414.269993,258.138004 412.716008,258.54 411.036,258.54 Z M411.036,254.076 C412.356007,254.076 413.465996,253.590005 414.366,252.618 C415.266005,251.645995 415.716,250.440007 415.716,249 C415.716,247.559993 415.266005,246.354005 414.366,245.382 C413.465996,244.409995 412.356007,243.924 411.036,243.924 C409.715993,243.924 408.606005,244.409995 407.706,245.382 C406.805996,246.354005 406.356,247.559993 406.356,249 C406.356,250.440007 406.805996,251.645995 407.706,252.618 C408.606005,253.590005 409.715993,254.076 411.036,254.076 Z M423.384,242.016 C423.384,241.487997 423.749996,240.984002 424.482,240.504 C425.214004,240.023998 425.999996,239.784 426.84,239.784 C427.728004,239.784 428.172,240.191996 428.172,241.008 L428.172,241.62 C428.724003,241.043997 429.395996,240.558002 430.188,240.162 C430.980004,239.765998 431.723997,239.568 432.42,239.568 C433.764007,239.568 434.436,240.047995 434.436,241.008 C434.436,241.872004 434.196002,242.675996 433.716,243.42 C433.235998,244.164004 432.708003,244.536 432.132,244.536 C431.963999,244.536 431.796001,244.524 431.628,244.5 C431.459999,244.476 431.268001,244.464 431.052,244.464 C429.875994,244.464 428.916004,244.775997 428.172,245.4 L428.172,254.436 C428.172,255.084003 428.046001,255.707997 427.794,256.308 C427.541999,256.908003 427.230002,257.375998 426.858,257.712 C426.485998,258.048002 426.120002,258.216 425.76,258.216 C425.159997,258.216 424.560003,257.760005 423.96,256.848 C423.575998,256.295997 423.384,255.828002 423.384,255.444 L423.384,242.016 Z M448.044,244.68 C447.155996,244.175997 446.160006,243.924 445.056,243.924 C443.687993,243.924 442.542005,244.385995 441.618,245.31 C440.693995,246.234005 440.232,247.391993 440.232,248.784 C440.232,250.176007 440.693995,251.351995 441.618,252.312 C442.542005,253.272005 443.675993,253.752 445.02,253.752 C446.100005,253.752 447.107995,253.452003 448.044,252.852 L448.044,244.68 Z M452.832,254.436 C452.832,255.084003 452.706001,255.707997 452.454,256.308 C452.201999,256.908003 451.890002,257.375998 451.518,257.712 C451.145998,258.048002 450.780002,258.216 450.42,258.216 C449.867997,258.216 449.268003,257.760005 448.62,256.848 C448.379999,256.463998 448.212,256.128001 448.116,255.84 C447.923999,256.368003 447.666002,256.823998 447.342,257.208 C447.017998,257.592002 446.676002,257.843999 446.316,257.964 C445.811997,258.132001 445.272003,258.216 444.696,258.216 C442.967991,258.216 441.402007,257.784004 439.998,256.92 C438.593993,256.055996 437.502004,254.922007 436.722,253.518 C435.941996,252.113993 435.552,250.584008 435.552,248.928 C435.552,247.151991 435.995996,245.532007 436.884,244.068 C437.772004,242.603993 438.923993,241.470004 440.34,240.666 C441.756007,239.861996 443.279992,239.46 444.912,239.46 C446.304007,239.46 447.659993,239.843996 448.98,240.612 C449.820004,240.059997 450.659996,239.784 451.5,239.784 C452.388004,239.784 452.832,240.191996 452.832,241.008 L452.832,254.436 Z M457.836,244.608 L457.008,244.608 C456.503997,244.608 456.000003,244.224004 455.496,243.456 C455.159998,242.999998 454.992,242.604002 454.992,242.268 C454.992,241.811998 455.291997,241.386002 455.892,240.99 C456.492003,240.593998 457.139997,240.384 457.836,240.36 L457.836,236.724 C457.836,236.195997 458.201996,235.692002 458.934,235.212 C459.666004,234.731998 460.451996,234.492 461.292,234.492 C462.180004,234.492 462.624,234.899996 462.624,235.716 L462.624,240.36 L465.648,240.36 C466.416004,240.36 466.8,240.707997 466.8,241.404 C466.8,242.196004 466.584002,242.927997 466.152,243.6 C465.719998,244.272003 465.252003,244.608 464.748,244.608 L462.624,244.608 L462.624,254.436 C462.624,255.084003 462.498001,255.707997 462.246,256.308 C461.993999,256.908003 461.682002,257.375998 461.31,257.712 C460.937998,258.048002 460.572002,258.216 460.212,258.216 C459.611997,258.216 459.012003,257.760005 458.412,256.848 C458.027998,256.295997 457.836,255.828002 457.836,255.444 L457.836,244.608 Z M468.888,242.016 C468.888,241.487997 469.253996,240.984002 469.986,240.504 C470.718004,240.023998 471.503996,239.784 472.344,239.784 C473.232004,239.784 473.676,240.191996 473.676,241.008 L473.676,254.436 C473.676,255.084003 473.550001,255.707997 473.298,256.308 C473.045999,256.908003 472.734002,257.375998 472.362,257.712 C471.989998,258.048002 471.624002,258.216 471.264,258.216 C470.663997,258.216 470.064003,257.760005 469.464,256.848 C469.079998,256.295997 468.888,255.828002 468.888,255.444 L468.888,242.016 Z M471.264,237.48 C470.639997,237.48 469.992003,236.988005 469.32,236.004 C468.863998,235.307997 468.636,234.768002 468.636,234.384 C468.636,233.783997 469.043996,233.220003 469.86,232.692 C470.676004,232.163997 471.551995,231.9 472.488,231.9 C473.496005,231.9 474,232.355995 474,233.268 C474,233.988004 473.862001,234.677997 473.586,235.338 C473.309999,235.998003 472.962002,236.519998 472.542,236.904 C472.121998,237.288002 471.696002,237.48 471.264,237.48 Z M486.024,258.54 C484.223991,258.54 482.598007,258.096004 481.146,257.208 C479.693993,256.319996 478.572004,255.150007 477.78,253.698 C476.987996,252.245993 476.592,250.680008 476.592,249 C476.592,247.175991 477.029996,245.532007 477.906,244.068 C478.782004,242.603993 479.933993,241.470004 481.362,240.666 C482.790007,239.861996 484.343992,239.46 486.024,239.46 C487.824009,239.46 489.449993,239.903996 490.902,240.792 C492.354007,241.680004 493.475996,242.849993 494.268,244.302 C495.060004,245.754007 495.456,247.319992 495.456,249 C495.456,250.824009 495.018004,252.467993 494.142,253.932 C493.265996,255.396007 492.114007,256.529996 490.686,257.334 C489.257993,258.138004 487.704008,258.54 486.024,258.54 Z M486.024,254.076 C487.344007,254.076 488.453996,253.590005 489.354,252.618 C490.254005,251.645995 490.704,250.440007 490.704,249 C490.704,247.559993 490.254005,246.354005 489.354,245.382 C488.453996,244.409995 487.344007,243.924 486.024,243.924 C484.703993,243.924 483.594004,244.409995 482.694,245.382 C481.793996,246.354005 481.344,247.559993 481.344,249 C481.344,250.440007 481.793996,251.645995 482.694,252.618 C483.594004,253.590005 484.703993,254.076 486.024,254.076 Z M510.36,246.336 C510.36,245.759997 510.162002,245.286002 509.766,244.914 C509.369998,244.541998 508.860003,244.356 508.236,244.356 C506.915993,244.356 505.22401,245.063993 503.16,246.48 L503.16,254.436 C503.16,255.084003 503.034001,255.707997 502.782,256.308 C502.529999,256.908003 502.218002,257.375998 501.846,257.712 C501.473998,258.048002 501.108002,258.216 500.748,258.216 C500.147997,258.216 499.548003,257.760005 498.948,256.848 C498.563998,256.295997 498.372,255.828002 498.372,255.444 L498.372,242.016 C498.372,241.487997 498.737996,240.984002 499.47,240.504 C500.202004,240.023998 500.987996,239.784 501.828,239.784 C502.716004,239.784 503.16,240.191996 503.16,241.008 L503.16,241.872 C505.344011,240.263992 507.44399,239.46 509.46,239.46 C510.540005,239.46 511.517996,239.747997 512.394,240.324 C513.270004,240.900003 513.947998,241.655995 514.428,242.592 C514.908002,243.528005 515.148,244.547994 515.148,245.652 L515.148,254.436 C515.148,255.084003 515.022001,255.707997 514.77,256.308 C514.517999,256.908003 514.206002,257.375998 513.834,257.712 C513.461998,258.048002 513.096002,258.216 512.736,258.216 C512.135997,258.216 511.536003,257.760005 510.936,256.848 C510.551998,256.295997 510.36,255.828002 510.36,255.444 L510.36,246.336 Z M538.548,256.344 C538.019997,256.680002 537.426003,256.943999 536.766,257.136 C536.105997,257.328001 535.476003,257.424 534.876,257.424 C533.219992,257.424 531.714007,257.010004 530.358,256.182 C529.001993,255.353996 527.946004,254.268007 527.19,252.924 C526.433996,251.579993 526.056,250.128008 526.056,248.568 C526.056,246.887992 526.505996,245.346007 527.406,243.942 C528.306005,242.537993 529.463993,241.440004 530.88,240.648 C532.296007,239.855996 533.795992,239.46 535.38,239.46 C536.820007,239.46 538.187994,239.843996 539.484,240.612 C540.324004,240.059997 541.163996,239.784 542.004,239.784 C542.892004,239.784 543.336,240.191996 543.336,241.008 L543.336,256.596 C543.336,259.212013 542.562008,261.305992 541.014,262.878 C539.465992,264.450008 537.396013,265.236 534.804,265.236 C533.387993,265.236 532.116006,265.038002 530.988,264.642 C529.859994,264.245998 528.960003,263.676004 528.288,262.932 C527.783997,262.379997 527.532,261.888002 527.532,261.456 C527.532,260.999998 527.837997,260.580002 528.45,260.196 C529.062003,259.811998 529.715997,259.62 530.412,259.62 C530.796002,259.62 531.107999,259.739999 531.348,259.98 C532.116004,260.700004 533.255992,261.06 534.768,261.06 C537.288013,261.06 538.548,259.860012 538.548,257.46 L538.548,256.344 Z M538.548,244.5 C537.563995,243.971997 536.580005,243.708 535.596,243.708 C534.251993,243.708 533.106005,244.169995 532.158,245.094 C531.209995,246.018005 530.736,247.127994 530.736,248.424 C530.736,249.768007 531.197995,250.907995 532.122,251.844 C533.046005,252.780005 534.179993,253.248 535.524,253.248 C536.580005,253.248 537.587995,252.948003 538.548,252.348 L538.548,244.5 Z M558.132,242.016 C558.132,241.487997 558.497996,240.984002 559.23,240.504 C559.962004,240.023998 560.747996,239.784 561.588,239.784 C562.476004,239.784 562.92,240.191996 562.92,241.008 L562.92,254.436 C562.92,255.084003 562.794001,255.707997 562.542,256.308 C562.289999,256.908003 561.978002,257.375998 561.606,257.712 C561.233998,258.048002 560.868002,258.216 560.508,258.216 C559.955997,258.216 559.368003,257.772004 558.744,256.884 C558.503999,256.523998 558.324001,256.200001 558.204,255.912 C556.23599,257.448008 554.364009,258.216 552.588,258.216 C551.507995,258.216 550.536004,257.934003 549.672,257.37 C548.807996,256.805997 548.136002,256.056005 547.656,255.12 C547.175998,254.183995 546.936,253.152006 546.936,252.024 L546.936,242.016 C546.936,241.487997 547.301996,240.984002 548.034,240.504 C548.766004,240.023998 549.551996,239.784 550.392,239.784 C551.280004,239.784 551.724,240.191996 551.724,241.008 L551.724,251.412 C551.724,252.012003 551.915998,252.503998 552.3,252.888 C552.684002,253.272002 553.199997,253.464 553.848,253.464 C554.472003,253.464 555.131997,253.296002 555.828,252.96 C556.524003,252.623998 557.291996,252.108003 558.132,251.412 L558.132,242.016 Z M566.808,242.016 C566.808,241.487997 567.173996,240.984002 567.906,240.504 C568.638004,240.023998 569.423996,239.784 570.264,239.784 C571.152004,239.784 571.596,240.191996 571.596,241.008 L571.596,254.436 C571.596,255.084003 571.470001,255.707997 571.218,256.308 C570.965999,256.908003 570.654002,257.375998 570.282,257.712 C569.909998,258.048002 569.544002,258.216 569.184,258.216 C568.583997,258.216 567.984003,257.760005 567.384,256.848 C566.999998,256.295997 566.808,255.828002 566.808,255.444 L566.808,242.016 Z M569.184,237.48 C568.559997,237.48 567.912003,236.988005 567.24,236.004 C566.783998,235.307997 566.556,234.768002 566.556,234.384 C566.556,233.783997 566.963996,233.220003 567.78,232.692 C568.596004,232.163997 569.471995,231.9 570.408,231.9 C571.416005,231.9 571.92,232.355995 571.92,233.268 C571.92,233.988004 571.782001,234.677997 571.506,235.338 C571.229999,235.998003 570.882002,236.519998 570.462,236.904 C570.041998,237.288002 569.616002,237.48 569.184,237.48 Z M587.004,234.816 C587.004,234.287997 587.369996,233.784002 588.102,233.304 C588.834004,232.823998 589.619996,232.584 590.46,232.584 C591.348004,232.584 591.792,232.991996 591.792,233.808 L591.792,254.436 C591.792,255.084003 591.666001,255.707997 591.414,256.308 C591.161999,256.908003 590.850002,257.375998 590.478,257.712 C590.105998,258.048002 589.740002,258.216 589.38,258.216 C588.827997,258.216 588.228003,257.760005 587.58,256.848 C587.339999,256.463998 587.172,256.128001 587.076,255.84 C586.883999,256.368003 586.626002,256.823998 586.302,257.208 C585.977998,257.592002 585.636002,257.843999 585.276,257.964 C584.771997,258.132001 584.232003,258.216 583.656,258.216 C581.927991,258.216 580.362007,257.784004 578.958,256.92 C577.553993,256.055996 576.462004,254.922007 575.682,253.518 C574.901996,252.113993 574.512,250.584008 574.512,248.928 C574.512,247.151991 574.955996,245.532007 575.844,244.068 C576.732004,242.603993 577.883993,241.470004 579.3,240.666 C580.716007,239.861996 582.239992,239.46 583.872,239.46 C584.904005,239.46 585.947995,239.687998 587.004,240.144 L587.004,234.816 Z M587.004,244.68 C586.115996,244.175997 585.120006,243.924 584.016,243.924 C582.647993,243.924 581.502005,244.385995 580.578,245.31 C579.653995,246.234005 579.192,247.391993 579.192,248.784 C579.192,250.176007 579.653995,251.351995 580.578,252.312 C581.502005,253.272005 582.635993,253.752 583.98,253.752 C585.060005,253.752 586.067995,253.452003 587.004,252.852 L587.004,244.68 Z M599.388,250.692 C599.652001,251.820006 600.227996,252.725997 601.116,253.41 C602.004004,254.094003 603.071994,254.436 604.32,254.436 C605.376005,254.436 606.635993,254.076004 608.1,253.356 C608.772003,253.019998 609.395997,252.852 609.972,252.852 C610.740004,252.852 611.124,253.199997 611.124,253.896 C611.124,254.520003 610.986001,255.119997 610.71,255.696 C610.433999,256.272003 610.080002,256.691999 609.648,256.956 C608.831996,257.460003 607.926005,257.849999 606.93,258.126 C605.933995,258.402001 604.944005,258.54 603.96,258.54 C602.231991,258.54 600.654007,258.084005 599.226,257.172 C597.797993,256.259995 596.688004,255.084007 595.896,253.644 C595.103996,252.203993 594.708,250.668008 594.708,249.036 C594.708,247.211991 595.139996,245.562007 596.004,244.086 C596.868004,242.609993 597.995993,241.470004 599.388,240.666 C600.780007,239.861996 602.303992,239.46 603.96,239.46 C605.568008,239.46 607.013994,239.837996 608.298,240.594 C609.582006,241.350004 610.571997,242.351994 611.268,243.6 C611.964003,244.848006 612.312,246.215993 612.312,247.704 C612.312,248.472004 612.114002,249.161997 611.718,249.774 C611.321998,250.386003 610.884002,250.692 610.404,250.692 L599.388,250.692 Z M607.884,247.056 C607.836,246.023995 607.428004,245.160003 606.66,244.464 C605.891996,243.767997 604.956006,243.42 603.852,243.42 C602.699994,243.42 601.716004,243.749997 600.9,244.41 C600.083996,245.070003 599.580001,245.951994 599.388,247.056 L607.884,247.056 Z M614.94,234.816 C614.94,234.287997 615.305996,233.784002 616.038,233.304 C616.770004,232.823998 617.555996,232.584 618.396,232.584 C619.284004,232.584 619.728,232.991996 619.728,233.808 L619.728,252.384 C619.728,252.696002 619.793999,252.953999 619.926,253.158 C620.058001,253.362001 620.291998,253.535999 620.628,253.68 C621.012002,253.848001 621.204,254.183997 621.204,254.688 C621.204,255.576004 620.964002,256.385996 620.484,257.118 C620.003998,257.850004 619.488003,258.216 618.936,258.216 C617.855995,258.216 616.920004,257.790004 616.128,256.938 C615.335996,256.085996 614.94,255.084006 614.94,253.932 L614.94,234.816 Z M623.976,242.016 C623.976,241.487997 624.341996,240.984002 625.074,240.504 C625.806004,240.023998 626.591996,239.784 627.432,239.784 C628.320004,239.784 628.764,240.191996 628.764,241.008 L628.764,254.436 C628.764,255.084003 628.638001,255.707997 628.386,256.308 C628.133999,256.908003 627.822002,257.375998 627.45,257.712 C627.077998,258.048002 626.712002,258.216 626.352,258.216 C625.751997,258.216 625.152003,257.760005 624.552,256.848 C624.167998,256.295997 623.976,255.828002 623.976,255.444 L623.976,242.016 Z M626.352,237.48 C625.727997,237.48 625.080003,236.988005 624.408,236.004 C623.951998,235.307997 623.724,234.768002 623.724,234.384 C623.724,233.783997 624.131996,233.220003 624.948,232.692 C625.764004,232.163997 626.639995,231.9 627.576,231.9 C628.584005,231.9 629.088,232.355995 629.088,233.268 C629.088,233.988004 628.950001,234.677997 628.674,235.338 C628.397999,235.998003 628.050002,236.519998 627.63,236.904 C627.209998,237.288002 626.784002,237.48 626.352,237.48 Z M644.64,246.336 C644.64,245.759997 644.442002,245.286002 644.046,244.914 C643.649998,244.541998 643.140003,244.356 642.516,244.356 C641.195993,244.356 639.50401,245.063993 637.44,246.48 L637.44,254.436 C637.44,255.084003 637.314001,255.707997 637.062,256.308 C636.809999,256.908003 636.498002,257.375998 636.126,257.712 C635.753998,258.048002 635.388002,258.216 635.028,258.216 C634.427997,258.216 633.828003,257.760005 633.228,256.848 C632.843998,256.295997 632.652,255.828002 632.652,255.444 L632.652,242.016 C632.652,241.487997 633.017996,240.984002 633.75,240.504 C634.482004,240.023998 635.267996,239.784 636.108,239.784 C636.996004,239.784 637.44,240.191996 637.44,241.008 L637.44,241.872 C639.624011,240.263992 641.72399,239.46 643.74,239.46 C644.820005,239.46 645.797996,239.747997 646.674,240.324 C647.550004,240.900003 648.227998,241.655995 648.708,242.592 C649.188002,243.528005 649.428,244.547994 649.428,245.652 L649.428,254.436 C649.428,255.084003 649.302001,255.707997 649.05,256.308 C648.797999,256.908003 648.486002,257.375998 648.114,257.712 C647.741998,258.048002 647.376002,258.216 647.016,258.216 C646.415997,258.216 645.816003,257.760005 645.216,256.848 C644.831998,256.295997 644.64,255.828002 644.64,255.444 L644.64,246.336 Z M656.736,250.692 C657.000001,251.820006 657.575996,252.725997 658.464,253.41 C659.352004,254.094003 660.419994,254.436 661.668,254.436 C662.724005,254.436 663.983993,254.076004 665.448,253.356 C666.120003,253.019998 666.743997,252.852 667.32,252.852 C668.088004,252.852 668.472,253.199997 668.472,253.896 C668.472,254.520003 668.334001,255.119997 668.058,255.696 C667.781999,256.272003 667.428002,256.691999 666.996,256.956 C666.179996,257.460003 665.274005,257.849999 664.278,258.126 C663.281995,258.402001 662.292005,258.54 661.308,258.54 C659.579991,258.54 658.002007,258.084005 656.574,257.172 C655.145993,256.259995 654.036004,255.084007 653.244,253.644 C652.451996,252.203993 652.056,250.668008 652.056,249.036 C652.056,247.211991 652.487996,245.562007 653.352,244.086 C654.216004,242.609993 655.343993,241.470004 656.736,240.666 C658.128007,239.861996 659.651992,239.46 661.308,239.46 C662.916008,239.46 664.361994,239.837996 665.646,240.594 C666.930006,241.350004 667.919997,242.351994 668.616,243.6 C669.312003,244.848006 669.66,246.215993 669.66,247.704 C669.66,248.472004 669.462002,249.161997 669.066,249.774 C668.669998,250.386003 668.232002,250.692 667.752,250.692 L656.736,250.692 Z M665.232,247.056 C665.184,246.023995 664.776004,245.160003 664.008,244.464 C663.239996,243.767997 662.304006,243.42 661.2,243.42 C660.047994,243.42 659.064004,243.749997 658.248,244.41 C657.431996,245.070003 656.928001,245.951994 656.736,247.056 L665.232,247.056 Z M686.04,252.816 C686.04,253.896005 685.698003,254.873996 685.014,255.75 C684.329997,256.626004 683.454005,257.309998 682.386,257.802 C681.317995,258.294002 680.160006,258.54 678.912,258.54 C677.423993,258.54 676.044006,258.294002 674.772,257.802 C673.499994,257.309998 672.504004,256.632004 671.784,255.768 C671.567999,255.503999 671.394001,255.240001 671.262,254.976 C671.129999,254.711999 671.064,254.508001 671.064,254.364 C671.064,253.931998 671.363997,253.518002 671.964,253.122 C672.564003,252.725998 673.199997,252.528 673.872,252.528 C674.304002,252.528 674.639999,252.671999 674.88,252.96 C675.336002,253.488003 675.881997,253.871999 676.518,254.112 C677.154003,254.352001 677.939995,254.472 678.876,254.472 C679.692004,254.472 680.333998,254.334001 680.802,254.058 C681.270002,253.781999 681.504,253.416002 681.504,252.96 C681.504,252.431997 681.234003,252.012002 680.694,251.7 C680.153997,251.387998 679.164007,251.076002 677.724,250.764 C675.75599,250.307998 674.250005,249.582005 673.206,248.586 C672.161995,247.589995 671.64,246.360007 671.64,244.896 C671.64,243.839995 671.963997,242.898004 672.612,242.07 C673.260003,241.241996 674.123995,240.600002 675.204,240.144 C676.284005,239.687998 677.471994,239.46 678.768,239.46 C679.800005,239.46 680.819995,239.591999 681.828,239.856 C682.836005,240.120001 683.723996,240.491998 684.492,240.972 C684.828002,241.188001 684.996,241.487998 684.996,241.872 C684.996,242.592004 684.798002,243.257997 684.402,243.87 C684.005998,244.482003 683.580002,244.788 683.124,244.788 C682.979999,244.788 682.680002,244.680001 682.224,244.464 C680.903993,243.815997 679.680006,243.492 678.552,243.492 C676.967992,243.492 676.176,243.947995 676.176,244.86 C676.176,245.316002 676.451997,245.687999 677.004,245.976 C677.556003,246.264001 678.683991,246.611998 680.388,247.02 C682.33201,247.476002 683.759995,248.171995 684.672,249.108 C685.584005,250.044005 686.04,251.279992 686.04,252.816 Z M367.35,303.216 C366.677997,303.216 366.018003,302.748005 365.37,301.812 C365.177999,301.547999 364.998001,301.200002 364.83,300.768 L357.198,280.752 C357.053999,280.391998 356.982,280.116001 356.982,279.924 C356.982,279.347997 357.359996,278.814002 358.116,278.322 C358.872004,277.829998 359.693996,277.584 360.582,277.584 C361.326004,277.584 361.781999,277.883997 361.95,278.484 L368.034,295.728 L373.614,279.6 C373.782001,279.071997 374.219996,278.604002 374.928,278.196 C375.636004,277.787998 376.385996,277.584 377.178,277.584 C378.114005,277.584 378.582,278.015996 378.582,278.88 C378.582,279.480003 378.474001,280.067997 378.258,280.644 L370.806,300.804 C370.517999,301.548004 370.164002,302.135998 369.744,302.568 C369.323998,303.000002 368.874002,303.216 368.394,303.216 L367.35,303.216 Z M384.522,295.692 C384.786001,296.820006 385.361996,297.725997 386.25,298.41 C387.138004,299.094003 388.205994,299.436 389.454,299.436 C390.510005,299.436 391.769993,299.076004 393.234,298.356 C393.906003,298.019998 394.529997,297.852 395.106,297.852 C395.874004,297.852 396.258,298.199997 396.258,298.896 C396.258,299.520003 396.120001,300.119997 395.844,300.696 C395.567999,301.272003 395.214002,301.691999 394.782,301.956 C393.965996,302.460003 393.060005,302.849999 392.064,303.126 C391.067995,303.402001 390.078005,303.54 389.094,303.54 C387.365991,303.54 385.788007,303.084005 384.36,302.172 C382.931993,301.259995 381.822004,300.084007 381.03,298.644 C380.237996,297.203993 379.842,295.668008 379.842,294.036 C379.842,292.211991 380.273996,290.562007 381.138,289.086 C382.002004,287.609993 383.129993,286.470004 384.522,285.666 C385.914007,284.861996 387.437992,284.46 389.094,284.46 C390.702008,284.46 392.147994,284.837996 393.432,285.594 C394.716006,286.350004 395.705997,287.351994 396.402,288.6 C397.098003,289.848006 397.446,291.215993 397.446,292.704 C397.446,293.472004 397.248002,294.161997 396.852,294.774 C396.455998,295.386003 396.018002,295.692 395.538,295.692 L384.522,295.692 Z M393.018,292.056 C392.97,291.023995 392.562004,290.160003 391.794,289.464 C391.025996,288.767997 390.090006,288.42 388.986,288.42 C387.833994,288.42 386.850004,288.749997 386.034,289.41 C385.217996,290.070003 384.714001,290.951994 384.522,292.056 L393.018,292.056 Z M400.074,287.016 C400.074,286.487997 400.439996,285.984002 401.172,285.504 C401.904004,285.023998 402.689996,284.784 403.53,284.784 C404.418004,284.784 404.862,285.191996 404.862,286.008 L404.862,286.62 C405.414003,286.043997 406.085996,285.558002 406.878,285.162 C407.670004,284.765998 408.413997,284.568 409.11,284.568 C410.454007,284.568 411.126,285.047995 411.126,286.008 C411.126,286.872004 410.886002,287.675996 410.406,288.42 C409.925998,289.164004 409.398003,289.536 408.822,289.536 C408.653999,289.536 408.486001,289.524 408.318,289.5 C408.149999,289.476 407.958001,289.464 407.742,289.464 C406.565994,289.464 405.606004,289.775997 404.862,290.4 L404.862,299.436 C404.862,300.084003 404.736001,300.707997 404.484,301.308 C404.231999,301.908003 403.920002,302.375998 403.548,302.712 C403.175998,303.048002 402.810002,303.216 402.45,303.216 C401.849997,303.216 401.250003,302.760005 400.65,301.848 C400.265998,301.295997 400.074,300.828002 400.074,300.444 L400.074,287.016 Z M426.966,297.816 C426.966,298.896005 426.624003,299.873996 425.94,300.75 C425.255997,301.626004 424.380005,302.309998 423.312,302.802 C422.243995,303.294002 421.086006,303.54 419.838,303.54 C418.349993,303.54 416.970006,303.294002 415.698,302.802 C414.425994,302.309998 413.430004,301.632004 412.71,300.768 C412.493999,300.503999 412.320001,300.240001 412.188,299.976 C412.055999,299.711999 411.99,299.508001 411.99,299.364 C411.99,298.931998 412.289997,298.518002 412.89,298.122 C413.490003,297.725998 414.125997,297.528 414.798,297.528 C415.230002,297.528 415.565999,297.671999 415.806,297.96 C416.262002,298.488003 416.807997,298.871999 417.444,299.112 C418.080003,299.352001 418.865995,299.472 419.802,299.472 C420.618004,299.472 421.259998,299.334001 421.728,299.058 C422.196002,298.781999 422.43,298.416002 422.43,297.96 C422.43,297.431997 422.160003,297.012002 421.62,296.7 C421.079997,296.387998 420.090007,296.076002 418.65,295.764 C416.68199,295.307998 415.176005,294.582005 414.132,293.586 C413.087995,292.589995 412.566,291.360007 412.566,289.896 C412.566,288.839995 412.889997,287.898004 413.538,287.07 C414.186003,286.241996 415.049995,285.600002 416.13,285.144 C417.210005,284.687998 418.397994,284.46 419.694,284.46 C420.726005,284.46 421.745995,284.591999 422.754,284.856 C423.762005,285.120001 424.649996,285.491998 425.418,285.972 C425.754002,286.188001 425.922,286.487998 425.922,286.872 C425.922,287.592004 425.724002,288.257997 425.328,288.87 C424.931998,289.482003 424.506002,289.788 424.05,289.788 C423.905999,289.788 423.606002,289.680001 423.15,289.464 C421.829993,288.815997 420.606006,288.492 419.478,288.492 C417.893992,288.492 417.102,288.947995 417.102,289.86 C417.102,290.316002 417.377997,290.687999 417.93,290.976 C418.482003,291.264001 419.609991,291.611998 421.314,292.02 C423.25801,292.476002 424.685995,293.171995 425.598,294.108 C426.510005,295.044005 426.966,296.279992 426.966,297.816 Z M429.558,287.016 C429.558,286.487997 429.923996,285.984002 430.656,285.504 C431.388004,285.023998 432.173996,284.784 433.014,284.784 C433.902004,284.784 434.346,285.191996 434.346,286.008 L434.346,299.436 C434.346,300.084003 434.220001,300.707997 433.968,301.308 C433.715999,301.908003 433.404002,302.375998 433.032,302.712 C432.659998,303.048002 432.294002,303.216 431.934,303.216 C431.333997,303.216 430.734003,302.760005 430.134,301.848 C429.749998,301.295997 429.558,300.828002 429.558,300.444 L429.558,287.016 Z M431.934,282.48 C431.309997,282.48 430.662003,281.988005 429.99,281.004 C429.533998,280.307997 429.306,279.768002 429.306,279.384 C429.306,278.783997 429.713996,278.220003 430.53,277.692 C431.346004,277.163997 432.221995,276.9 433.158,276.9 C434.166005,276.9 434.67,277.355995 434.67,278.268 C434.67,278.988004 434.532001,279.677997 434.256,280.338 C433.979999,280.998003 433.632002,281.519998 433.212,281.904 C432.791998,282.288002 432.366002,282.48 431.934,282.48 Z M446.694,303.54 C444.893991,303.54 443.268007,303.096004 441.816,302.208 C440.363993,301.319996 439.242004,300.150007 438.45,298.698 C437.657996,297.245993 437.262,295.680008 437.262,294 C437.262,292.175991 437.699996,290.532007 438.576,289.068 C439.452004,287.603993 440.603993,286.470004 442.032,285.666 C443.460007,284.861996 445.013992,284.46 446.694,284.46 C448.494009,284.46 450.119993,284.903996 451.572,285.792 C453.024007,286.680004 454.145996,287.849993 454.938,289.302 C455.730004,290.754007 456.126,292.319992 456.126,294 C456.126,295.824009 455.688004,297.467993 454.812,298.932 C453.935996,300.396007 452.784007,301.529996 451.356,302.334 C449.927993,303.138004 448.374008,303.54 446.694,303.54 Z M446.694,299.076 C448.014007,299.076 449.123995,298.590005 450.024,297.618 C450.924004,296.645995 451.374,295.440007 451.374,294 C451.374,292.559993 450.924004,291.354005 450.024,290.382 C449.123995,289.409995 448.014007,288.924 446.694,288.924 C445.373993,288.924 444.264004,289.409995 443.364,290.382 C442.463995,291.354005 442.014,292.559993 442.014,294 C442.014,295.440007 442.463995,296.645995 443.364,297.618 C444.264004,298.590005 445.373993,299.076 446.694,299.076 Z M471.03,291.336 C471.03,290.759997 470.832002,290.286002 470.436,289.914 C470.039998,289.541998 469.530003,289.356 468.906,289.356 C467.585993,289.356 465.89401,290.063993 463.83,291.48 L463.83,299.436 C463.83,300.084003 463.704001,300.707997 463.452,301.308 C463.199999,301.908003 462.888002,302.375998 462.516,302.712 C462.143998,303.048002 461.778002,303.216 461.418,303.216 C460.817997,303.216 460.218003,302.760005 459.618,301.848 C459.233998,301.295997 459.042,300.828002 459.042,300.444 L459.042,287.016 C459.042,286.487997 459.407996,285.984002 460.14,285.504 C460.872004,285.023998 461.657996,284.784 462.498,284.784 C463.386004,284.784 463.83,285.191996 463.83,286.008 L463.83,286.872 C466.014011,285.263992 468.11399,284.46 470.13,284.46 C471.210005,284.46 472.187996,284.747997 473.064,285.324 C473.940004,285.900003 474.617998,286.655995 475.098,287.592 C475.578002,288.528005 475.818,289.547994 475.818,290.652 L475.818,299.436 C475.818,300.084003 475.692001,300.707997 475.44,301.308 C475.187999,301.908003 474.876002,302.375998 474.504,302.712 C474.131998,303.048002 473.766002,303.216 473.406,303.216 C472.805997,303.216 472.206003,302.760005 471.606,301.848 C471.221998,301.295997 471.03,300.828002 471.03,300.444 L471.03,291.336 Z M495.798,283.596 L491.55,285.54 C491.333999,285.636 491.142001,285.684 490.974,285.684 C490.373997,285.684 489.798003,285.252004 489.246,284.388 C488.885998,283.811997 488.706,283.368002 488.706,283.056 C488.706,282.383997 489.269994,281.784003 490.398,281.256 L497.814,277.908 C498.318003,277.691999 498.845997,277.584 499.398,277.584 C500.334005,277.584 500.802,278.015996 500.802,278.88 L500.802,299.292 C500.802,300.276005 500.538003,301.175996 500.01,301.992 C499.481997,302.808004 498.906003,303.216 498.282,303.216 C497.681997,303.216 497.058003,302.748005 496.41,301.812 C496.001998,301.187997 495.798,300.696002 495.798,300.336 L495.798,283.596 Z M511.35,303.216 C510.581996,303.216 509.850003,302.676005 509.154,301.596 C508.673998,300.803996 508.434,300.204002 508.434,299.796 C508.434,299.123997 508.889995,298.500003 509.802,297.924 C510.714005,297.347997 511.685995,297.06 512.718,297.06 C513.822006,297.06 514.374,297.563995 514.374,298.572 C514.374,299.364004 514.218002,300.125996 513.906,300.858 C513.593998,301.590004 513.210002,302.165998 512.754,302.586 C512.297998,303.006002 511.830002,303.216 511.35,303.216 Z M531.438,289.716 C531.438,284.507974 529.950015,281.904 526.974,281.904 C523.997985,281.904 522.51,284.507974 522.51,289.716 L522.51,291.084 C522.51,296.292026 523.997985,298.896 526.974,298.896 C529.950015,298.896 531.438,296.292026 531.438,291.084 L531.438,289.716 Z M536.334,291.372 C536.334,293.916013 535.950004,296.105991 535.182,297.942 C534.413996,299.778009 533.328007,301.169995 531.924,302.118 C530.519993,303.066005 528.870009,303.54 526.974,303.54 C525.00599,303.54 523.320007,303.042005 521.916,302.046 C520.511993,301.049995 519.444004,299.640009 518.712,297.816 C517.979996,295.991991 517.614,293.844012 517.614,291.372 L517.614,289.428 C517.614,286.883987 517.997996,284.694009 518.766,282.858 C519.534004,281.021991 520.619993,279.630005 522.024,278.682 C523.428007,277.733995 525.077991,277.26 526.974,277.26 C528.94201,277.26 530.627993,277.757995 532.032,278.754 C533.436007,279.750005 534.503996,281.159991 535.236,282.984 C535.968004,284.808009 536.334,286.955988 536.334,289.428 L536.334,291.372 Z" id="Telia-app-standard-T" fill="#000000"></path>
            <rect id="Rectangle-3" stroke="url(#linearGradient-1)" stroke-width="15" transform="translate(447.500000, 223.000000) rotate(-180.000000) translate(-447.500000, -223.000000) " x="17.5" y="27.5" width="860" height="391"></rect>
        </g>
    </g>
</svg>